<mxfile host="app.diagrams.net" modified="2021-04-27T01:52:06.892Z" agent="5.0 (Windows NT 10.0; Win64; x64) AppleWebKit/537.36 (KHTML, like Gecko) Chrome/90.0.4430.85 Safari/537.36 Edg/90.0.818.46" etag="Yn2VtKFGshQfWnzhKJQ0" version="14.6.6" type="github">
  <diagram name="Page-1" id="13e1069c-82ec-6db2-03f1-153e76fe0fe0">
    <mxGraphModel dx="990" dy="548" grid="1" gridSize="10" guides="1" tooltips="1" connect="1" arrows="1" fold="1" page="1" pageScale="1" pageWidth="1100" pageHeight="850" background="#ffffff" math="0" shadow="0">
      <root>
        <mxCell id="0" />
        <mxCell id="1" parent="0" />
        <mxCell id="7baba1c4bc27f4b0-2" value="process_request" style="shape=umlLifeline;perimeter=lifelinePerimeter;whiteSpace=wrap;html=1;container=1;collapsible=0;recursiveResize=0;outlineConnect=0;rounded=1;shadow=0;comic=0;labelBackgroundColor=none;strokeWidth=1;fontFamily=Verdana;fontSize=12;align=center;sketch=1;" parent="1" vertex="1">
          <mxGeometry x="240" y="80" width="120" height="600" as="geometry" />
        </mxCell>
        <mxCell id="7baba1c4bc27f4b0-10" value="" style="html=1;points=[];perimeter=orthogonalPerimeter;rounded=0;shadow=0;comic=0;labelBackgroundColor=none;strokeWidth=1;fontFamily=Verdana;fontSize=12;align=center;sketch=1;" parent="7baba1c4bc27f4b0-2" vertex="1">
          <mxGeometry x="55" y="100" width="10" height="470" as="geometry" />
        </mxCell>
        <mxCell id="pkjFX4-xkEMupMF3P2d9-3" value="" style="html=1;points=[];perimeter=orthogonalPerimeter;sketch=1;" vertex="1" parent="7baba1c4bc27f4b0-2">
          <mxGeometry x="61" y="210" width="10" height="70" as="geometry" />
        </mxCell>
        <mxCell id="pkjFX4-xkEMupMF3P2d9-4" value="is superuser" style="html=1;verticalAlign=bottom;endArrow=block;entryX=1.22;entryY=0.471;entryDx=0;entryDy=0;entryPerimeter=0;curved=1;sketch=1;" edge="1" parent="7baba1c4bc27f4b0-2" target="pkjFX4-xkEMupMF3P2d9-3">
          <mxGeometry x="-0.1399" y="-1" width="80" relative="1" as="geometry">
            <mxPoint x="66" y="200" as="sourcePoint" />
            <mxPoint x="140" y="200" as="targetPoint" />
            <Array as="points">
              <mxPoint x="140" y="210" />
            </Array>
            <mxPoint as="offset" />
          </mxGeometry>
        </mxCell>
        <mxCell id="pkjFX4-xkEMupMF3P2d9-5" value="" style="html=1;points=[];perimeter=orthogonalPerimeter;sketch=1;" vertex="1" parent="7baba1c4bc27f4b0-2">
          <mxGeometry x="61" y="310" width="10" height="70" as="geometry" />
        </mxCell>
        <mxCell id="pkjFX4-xkEMupMF3P2d9-6" value="in SAFE_URL" style="html=1;verticalAlign=bottom;endArrow=block;curved=1;entryX=1.14;entryY=0.382;entryDx=0;entryDy=0;entryPerimeter=0;sketch=1;" edge="1" parent="7baba1c4bc27f4b0-2" target="pkjFX4-xkEMupMF3P2d9-5">
          <mxGeometry x="-0.1473" width="80" relative="1" as="geometry">
            <mxPoint x="66" y="300" as="sourcePoint" />
            <mxPoint x="140" y="300" as="targetPoint" />
            <Array as="points">
              <mxPoint x="120" y="300" />
              <mxPoint x="120" y="320" />
            </Array>
            <mxPoint as="offset" />
          </mxGeometry>
        </mxCell>
        <mxCell id="pkjFX4-xkEMupMF3P2d9-7" value="" style="html=1;points=[];perimeter=orthogonalPerimeter;sketch=1;" vertex="1" parent="7baba1c4bc27f4b0-2">
          <mxGeometry x="61" y="410" width="10" height="60" as="geometry" />
        </mxCell>
        <mxCell id="pkjFX4-xkEMupMF3P2d9-9" value="url_perms is None" style="html=1;verticalAlign=bottom;startArrow=none;startFill=0;endArrow=block;startSize=8;entryX=1.06;entryY=0.457;entryDx=0;entryDy=0;entryPerimeter=0;curved=1;exitX=1.26;exitY=0.638;exitDx=0;exitDy=0;exitPerimeter=0;sketch=1;" edge="1" parent="7baba1c4bc27f4b0-2" source="7baba1c4bc27f4b0-10" target="pkjFX4-xkEMupMF3P2d9-7">
          <mxGeometry x="-0.3799" y="19" width="60" relative="1" as="geometry">
            <mxPoint x="70" y="400" as="sourcePoint" />
            <mxPoint x="130" y="400" as="targetPoint" />
            <Array as="points">
              <mxPoint x="160" y="430" />
            </Array>
            <mxPoint as="offset" />
          </mxGeometry>
        </mxCell>
        <mxCell id="pkjFX4-xkEMupMF3P2d9-11" value="" style="html=1;points=[];perimeter=orthogonalPerimeter;sketch=1;" vertex="1" parent="7baba1c4bc27f4b0-2">
          <mxGeometry x="61" y="500" width="10" height="60" as="geometry" />
        </mxCell>
        <mxCell id="pkjFX4-xkEMupMF3P2d9-12" value="match request_url&lt;br&gt;in url_perms" style="html=1;verticalAlign=bottom;endArrow=block;curved=1;entryX=1.06;entryY=0.338;entryDx=0;entryDy=0;entryPerimeter=0;sketch=1;" edge="1" parent="7baba1c4bc27f4b0-2" target="pkjFX4-xkEMupMF3P2d9-11">
          <mxGeometry x="-0.1625" y="6" width="80" relative="1" as="geometry">
            <mxPoint x="66" y="490" as="sourcePoint" />
            <mxPoint x="140" y="490" as="targetPoint" />
            <Array as="points">
              <mxPoint x="160" y="510" />
            </Array>
            <mxPoint as="offset" />
          </mxGeometry>
        </mxCell>
        <mxCell id="7baba1c4bc27f4b0-3" value="request.session" style="shape=umlLifeline;perimeter=lifelinePerimeter;whiteSpace=wrap;html=1;container=1;collapsible=0;recursiveResize=0;outlineConnect=0;rounded=1;shadow=0;comic=0;labelBackgroundColor=none;strokeWidth=1;fontFamily=Verdana;fontSize=12;align=center;sketch=1;" parent="1" vertex="1">
          <mxGeometry x="400" y="80" width="110" height="600" as="geometry" />
        </mxCell>
        <mxCell id="7baba1c4bc27f4b0-13" value="" style="html=1;points=[];perimeter=orthogonalPerimeter;rounded=0;shadow=0;comic=0;labelBackgroundColor=none;strokeWidth=1;fontFamily=Verdana;fontSize=12;align=center;sketch=1;" parent="7baba1c4bc27f4b0-3" vertex="1">
          <mxGeometry x="50" y="120" width="10" height="60" as="geometry" />
        </mxCell>
        <mxCell id="7baba1c4bc27f4b0-4" value="get_response" style="shape=umlLifeline;perimeter=lifelinePerimeter;whiteSpace=wrap;html=1;container=1;collapsible=0;recursiveResize=0;outlineConnect=0;rounded=1;shadow=0;comic=0;labelBackgroundColor=none;strokeWidth=1;fontFamily=Verdana;fontSize=12;align=center;sketch=1;" parent="1" vertex="1">
          <mxGeometry x="540" y="80" width="100" height="600" as="geometry" />
        </mxCell>
        <mxCell id="7baba1c4bc27f4b0-8" value="User" style="shape=umlLifeline;perimeter=lifelinePerimeter;whiteSpace=wrap;html=1;container=1;collapsible=0;recursiveResize=0;outlineConnect=0;rounded=1;shadow=0;comic=0;labelBackgroundColor=none;strokeWidth=1;fontFamily=Verdana;fontSize=12;align=center;sketch=1;" parent="1" vertex="1">
          <mxGeometry x="100" y="80" width="100" height="600" as="geometry" />
        </mxCell>
        <mxCell id="7baba1c4bc27f4b0-9" value="" style="html=1;points=[];perimeter=orthogonalPerimeter;rounded=0;shadow=0;comic=0;labelBackgroundColor=none;strokeWidth=1;fontFamily=Verdana;fontSize=12;align=center;sketch=1;" parent="7baba1c4bc27f4b0-8" vertex="1">
          <mxGeometry x="45" y="100" width="10" height="480" as="geometry" />
        </mxCell>
        <mxCell id="7baba1c4bc27f4b0-16" value="" style="html=1;points=[];perimeter=orthogonalPerimeter;rounded=0;shadow=0;comic=0;labelBackgroundColor=none;strokeWidth=1;fontFamily=Verdana;fontSize=12;align=center;sketch=1;" parent="1" vertex="1">
          <mxGeometry x="585" y="340" width="10" height="320" as="geometry" />
        </mxCell>
        <mxCell id="7baba1c4bc27f4b0-11" value="request" style="html=1;verticalAlign=bottom;endArrow=block;entryX=0;entryY=0;labelBackgroundColor=none;fontFamily=Verdana;fontSize=12;edgeStyle=elbowEdgeStyle;elbow=vertical;sketch=1;" parent="1" source="7baba1c4bc27f4b0-9" target="7baba1c4bc27f4b0-10" edge="1">
          <mxGeometry relative="1" as="geometry">
            <mxPoint x="220" y="190" as="sourcePoint" />
          </mxGeometry>
        </mxCell>
        <mxCell id="7baba1c4bc27f4b0-14" value="session" style="html=1;verticalAlign=bottom;endArrow=block;entryX=0;entryY=0;labelBackgroundColor=none;fontFamily=Verdana;fontSize=12;edgeStyle=elbowEdgeStyle;elbow=vertical;sketch=1;" parent="1" source="7baba1c4bc27f4b0-10" target="7baba1c4bc27f4b0-13" edge="1">
          <mxGeometry relative="1" as="geometry">
            <mxPoint x="370" y="200" as="sourcePoint" />
          </mxGeometry>
        </mxCell>
        <mxCell id="7baba1c4bc27f4b0-40" value="&lt;b&gt;Note&lt;br&gt;middleware&lt;/b&gt;" style="shape=note;whiteSpace=wrap;html=1;size=14;verticalAlign=top;align=left;spacingTop=-6;rounded=0;shadow=0;comic=0;labelBackgroundColor=none;strokeWidth=1;fontFamily=Verdana;fontSize=12;sketch=1;" parent="1" vertex="1">
          <mxGeometry x="100" y="30" width="100" height="35" as="geometry" />
        </mxCell>
        <mxCell id="7baba1c4bc27f4b0-41" value="Note&lt;br&gt;rbac.middleware" style="shape=note;whiteSpace=wrap;html=1;size=14;verticalAlign=top;align=left;spacingTop=-6;rounded=0;shadow=0;comic=0;labelBackgroundColor=none;strokeWidth=1;fontFamily=Verdana;fontSize=12;sketch=1;" parent="1" vertex="1">
          <mxGeometry x="240" y="30" width="120" height="35" as="geometry" />
        </mxCell>
        <mxCell id="7baba1c4bc27f4b0-42" value="Note&lt;br&gt;rbac.middleware" style="shape=note;whiteSpace=wrap;html=1;size=14;verticalAlign=top;align=left;spacingTop=-6;rounded=0;shadow=0;comic=0;labelBackgroundColor=none;strokeWidth=1;fontFamily=Verdana;fontSize=12;sketch=1;" parent="1" vertex="1">
          <mxGeometry x="400" y="31" width="110" height="35" as="geometry" />
        </mxCell>
        <mxCell id="7baba1c4bc27f4b0-43" value="Note&lt;br&gt;rbac.middleware" style="shape=note;whiteSpace=wrap;html=1;size=14;verticalAlign=top;align=left;spacingTop=-6;rounded=0;shadow=0;comic=0;labelBackgroundColor=none;strokeWidth=1;fontFamily=Verdana;fontSize=12;sketch=1;" parent="1" vertex="1">
          <mxGeometry x="540" y="30" width="100" height="35" as="geometry" />
        </mxCell>
        <mxCell id="pkjFX4-xkEMupMF3P2d9-1" value="return&lt;br&gt;url_perms" style="html=1;verticalAlign=bottom;endArrow=open;dashed=1;endSize=8;exitX=0.08;exitY=0.49;exitDx=0;exitDy=0;exitPerimeter=0;sketch=1;" edge="1" parent="1">
          <mxGeometry relative="1" as="geometry">
            <mxPoint x="450.79999999999995" y="258.4" as="sourcePoint" />
            <mxPoint x="305" y="258.4" as="targetPoint" />
          </mxGeometry>
        </mxCell>
        <mxCell id="pkjFX4-xkEMupMF3P2d9-10" value="return&lt;br&gt;index" style="html=1;verticalAlign=bottom;endArrow=open;dashed=1;endSize=8;sketch=1;" edge="1" parent="1" target="7baba1c4bc27f4b0-8">
          <mxGeometry relative="1" as="geometry">
            <mxPoint x="301" y="541" as="sourcePoint" />
            <mxPoint x="170" y="541" as="targetPoint" />
          </mxGeometry>
        </mxCell>
        <mxCell id="pkjFX4-xkEMupMF3P2d9-13" value="return&lt;br&gt;HTTPResponse" style="html=1;verticalAlign=bottom;endArrow=open;dashed=1;endSize=8;sketch=1;" edge="1" parent="1">
          <mxGeometry relative="1" as="geometry">
            <mxPoint x="301" y="618" as="sourcePoint" />
            <mxPoint x="149.5" y="618" as="targetPoint" />
          </mxGeometry>
        </mxCell>
        <mxCell id="pkjFX4-xkEMupMF3P2d9-14" value="None" style="html=1;verticalAlign=bottom;endArrow=block;exitX=0.9;exitY=0.757;exitDx=0;exitDy=0;exitPerimeter=0;sketch=1;" edge="1" parent="1" source="pkjFX4-xkEMupMF3P2d9-3" target="7baba1c4bc27f4b0-4">
          <mxGeometry width="80" relative="1" as="geometry">
            <mxPoint x="350" y="340" as="sourcePoint" />
            <mxPoint x="430" y="340" as="targetPoint" />
          </mxGeometry>
        </mxCell>
        <mxCell id="pkjFX4-xkEMupMF3P2d9-15" value="None" style="html=1;verticalAlign=bottom;endArrow=block;exitX=0.98;exitY=0.849;exitDx=0;exitDy=0;exitPerimeter=0;sketch=1;" edge="1" parent="1" source="pkjFX4-xkEMupMF3P2d9-5" target="7baba1c4bc27f4b0-4">
          <mxGeometry width="80" relative="1" as="geometry">
            <mxPoint x="320" y="450" as="sourcePoint" />
            <mxPoint x="560" y="450" as="targetPoint" />
          </mxGeometry>
        </mxCell>
        <mxCell id="pkjFX4-xkEMupMF3P2d9-16" value="None" style="html=1;verticalAlign=bottom;endArrow=block;exitX=1.14;exitY=0.837;exitDx=0;exitDy=0;exitPerimeter=0;sketch=1;" edge="1" parent="1" source="pkjFX4-xkEMupMF3P2d9-11" target="7baba1c4bc27f4b0-4">
          <mxGeometry width="80" relative="1" as="geometry">
            <mxPoint x="320" y="630" as="sourcePoint" />
            <mxPoint x="560" y="630" as="targetPoint" />
          </mxGeometry>
        </mxCell>
        <mxCell id="pkjFX4-xkEMupMF3P2d9-17" value="return response" style="html=1;verticalAlign=bottom;endArrow=open;dashed=1;endSize=8;entryX=0.98;entryY=0.999;entryDx=0;entryDy=0;entryPerimeter=0;sketch=1;" edge="1" parent="1" source="7baba1c4bc27f4b0-4" target="7baba1c4bc27f4b0-9">
          <mxGeometry relative="1" as="geometry">
            <mxPoint x="570" y="650" as="sourcePoint" />
            <mxPoint x="490" y="650" as="targetPoint" />
          </mxGeometry>
        </mxCell>
      </root>
    </mxGraphModel>
  </diagram>
</mxfile>
